<svg width="164" height="46" viewBox="0 0 164 46" fill="none" xmlns="http://www.w3.org/2000/svg">
<path d="M44.3617 19.8363L37.1277 26.8881L33.5953 22.0221C32.3501 20.4949 30.5713 19.4976 28.6189 19.2319C26.6664 18.9661 24.6859 19.4517 23.0778 20.5904C21.4696 21.7291 20.354 23.436 19.9563 25.366C19.5587 27.2959 19.9088 29.3048 20.9358 30.9865L28.2153 41.0438L22.4905 38.0383L10.8849 44.1404C10.5342 44.3221 10.1398 44.4026 9.74602 44.3729C9.3522 44.3431 8.97447 44.2043 8.65507 43.972C8.33566 43.7397 8.08722 43.4231 7.93758 43.0576C7.78794 42.6921 7.74302 42.2921 7.80782 41.9026L10.0262 28.9828L0.638845 19.8363C0.35554 19.5599 0.155235 19.2098 0.060568 18.8255C-0.034099 18.4412 -0.0193019 18.038 0.103212 17.6617C0.225726 17.2853 0.451078 16.9508 0.753833 16.6959C1.05659 16.441 1.42465 16.2759 1.81636 16.2193L14.7881 14.3327L20.591 2.57741C20.7666 2.22371 21.0374 1.92606 21.373 1.71798C21.7086 1.5099 22.0956 1.39966 22.4905 1.39966C22.8854 1.39966 23.2725 1.5099 23.6081 1.71798C23.9437 1.92606 24.2145 2.22371 24.3901 2.57741L30.193 14.3327L43.1647 16.2193C43.558 16.2729 43.9285 16.4358 44.2338 16.6894C44.5391 16.9431 44.7671 17.2774 44.8918 17.6543C45.0165 18.0312 45.0329 18.4354 44.9392 18.8212C44.8455 19.2069 44.6454 19.5586 44.3617 19.8363Z" fill="url(#paint0_linear_453_6090)"/>
<path d="M32.8079 26.569C32.8092 27.4983 32.5347 28.407 32.0194 29.1803C31.5041 29.9535 30.771 30.5565 29.9129 30.913C29.0547 31.2695 28.1102 31.3635 27.1986 31.183C26.2871 31.0025 25.4496 30.5556 24.7921 29.899C24.1345 29.2424 23.6866 28.4055 23.5048 27.4943C23.3231 26.583 23.4156 25.6382 23.7709 24.7796C24.1262 23.921 24.7283 23.1871 25.5008 22.6707C26.2734 22.1543 27.1817 21.8787 28.1109 21.8787C29.3555 21.8787 30.5492 22.3726 31.4299 23.252C32.3105 24.1315 32.8062 25.3245 32.8079 26.569Z" fill="url(#paint1_linear_453_6090)"/>
<path d="M30.5571 42.2602L28.2412 41.0437L20.9356 30.9864C20.29 30.1053 19.8545 29.088 19.6628 28.0126C19.4711 26.9372 19.5282 25.8321 19.8296 24.7822C20.131 23.7322 20.6688 22.7652 21.4018 21.9552C22.1347 21.1453 23.0434 20.5138 24.0582 20.1094C23.889 20.2135 23.7264 20.3241 23.5703 20.4346C22.8046 20.9869 22.1559 21.6852 21.6613 22.4893C21.1667 23.2935 20.8361 24.1875 20.6886 25.1199C20.541 26.0523 20.5794 27.0048 20.8016 27.9223C21.0237 28.8398 21.4253 29.7043 21.983 30.466L30.5571 42.2602Z" fill="url(#paint2_linear_453_6090)"/>
<path d="M74.2 32H68.696L64.472 24.64H62.04V32H56.92V9.6H65.88C68.0133 9.6 69.8267 10.3467 71.32 11.84C72.8133 13.3333 73.56 15.1467 73.56 17.28C73.56 18.624 73.176 19.8827 72.408 21.056C71.6613 22.2293 70.6693 23.136 69.432 23.776L74.2 32ZM65.88 14.4H62.04V20.16H65.88C66.584 20.16 67.1813 19.8827 67.672 19.328C68.184 18.7733 68.44 18.0907 68.44 17.28C68.44 16.4693 68.184 15.7867 67.672 15.232C67.1813 14.6773 66.584 14.4 65.88 14.4ZM87.251 17.504V16H92.051V32H87.251V30.496C86.1417 31.7973 84.5523 32.448 82.483 32.448C80.371 32.448 78.5683 31.6373 77.075 30.016C75.5817 28.3947 74.835 26.3893 74.835 24C74.835 21.632 75.5817 19.6373 77.075 18.016C78.5897 16.3733 80.3923 15.552 82.483 15.552C84.5523 15.552 86.1417 16.2027 87.251 17.504ZM79.635 24C79.635 25.1947 79.987 26.144 80.691 26.848C81.395 27.552 82.3123 27.904 83.443 27.904C84.5737 27.904 85.491 27.552 86.195 26.848C86.899 26.144 87.251 25.1947 87.251 24C87.251 22.8053 86.899 21.856 86.195 21.152C85.491 20.448 84.5737 20.096 83.443 20.096C82.3123 20.096 81.395 20.448 80.691 21.152C79.987 21.856 79.635 22.8053 79.635 24ZM104.949 16V20.608H101.653V26.272C101.653 26.8907 101.898 27.296 102.389 27.488C102.879 27.6587 103.733 27.712 104.949 27.648V32C101.919 32.32 99.8072 32.032 98.6125 31.136C97.4392 30.2187 96.8525 28.5973 96.8525 26.272V20.608H94.2925V16H96.8525V12.96L101.653 11.52V16H104.949ZM123.002 25.92H111.642C112.175 27.4133 113.455 28.16 115.482 28.16C116.783 28.16 117.807 27.7547 118.554 26.944L122.394 29.152C120.836 31.3493 118.511 32.448 115.418 32.448C112.751 32.448 110.596 31.648 108.954 30.048C107.354 28.448 106.554 26.432 106.554 24C106.554 21.6107 107.343 19.6053 108.922 17.984C110.522 16.3627 112.57 15.552 115.066 15.552C117.391 15.552 119.322 16.3627 120.858 17.984C122.415 19.5627 123.194 21.568 123.194 24C123.194 24.6827 123.13 25.3227 123.002 25.92ZM111.546 22.336H118.426C117.956 20.6507 116.826 19.808 115.034 19.808C113.178 19.808 112.015 20.6507 111.546 22.336ZM125.916 24.768V9.6H131.036V24.32C131.036 26.4107 132.21 27.456 134.556 27.456C136.903 27.456 138.076 26.4107 138.076 24.32V9.6H143.196V24.768C143.196 27.136 142.386 29.0027 140.764 30.368C139.122 31.7547 137.052 32.448 134.556 32.448C132.06 32.448 129.991 31.7547 128.348 30.368C126.727 29.0027 125.916 27.136 125.916 24.768ZM146.889 9.6H155.369C157.587 9.6 159.443 10.3467 160.937 11.84C162.451 13.3547 163.209 15.168 163.209 17.28C163.209 19.392 162.451 21.2053 160.937 22.72C159.443 24.2133 157.587 24.96 155.369 24.96H152.009V32H146.889V9.6ZM152.009 20.16H155.369C156.158 20.16 156.809 19.8827 157.321 19.328C157.833 18.7733 158.089 18.0907 158.089 17.28C158.089 16.4693 157.833 15.7867 157.321 15.232C156.809 14.6773 156.158 14.4 155.369 14.4H152.009V20.16Z" fill="url(#paint3_linear_453_6090)"/>
<defs>
<linearGradient id="paint0_linear_453_6090" x1="-14.278" y1="-15.7743" x2="38.175" y2="43.6136" gradientUnits="userSpaceOnUse">
<stop stop-color="#FFD54C"/>
<stop offset="1" stop-color="#F8951D"/>
</linearGradient>
<linearGradient id="paint1_linear_453_6090" x1="20.0652" y1="19.3296" x2="29.8422" y2="28.2661" gradientUnits="userSpaceOnUse">
<stop stop-color="#62CBE6"/>
<stop offset="1" stop-color="#3F5BA9"/>
</linearGradient>
<linearGradient id="paint2_linear_453_6090" x1="19.5518" y1="31.1848" x2="30.5571" y2="31.1848" gradientUnits="userSpaceOnUse">
<stop stop-color="#2564AE"/>
<stop offset="1" stop-color="#00397B"/>
</linearGradient>
<linearGradient id="paint3_linear_453_6090" x1="16.1417" y1="-7.85422" x2="45.047" y2="64.1407" gradientUnits="userSpaceOnUse">
<stop stop-color="#62CBE6"/>
<stop offset="1" stop-color="#3F5BA9"/>
</linearGradient>
</defs>
</svg>
